<?xml version="1.0" encoding="UTF-8" standalone="no"?>
<!-- Created with Inkscape (http://www.inkscape.org/) -->

<svg
   xmlns:dc="http://purl.org/dc/elements/1.1/"
   xmlns:cc="http://creativecommons.org/ns#"
   xmlns:rdf="http://www.w3.org/1999/02/22-rdf-syntax-ns#"
   xmlns:svg="http://www.w3.org/2000/svg"
   xmlns="http://www.w3.org/2000/svg"
   xmlns:sodipodi="http://sodipodi.sourceforge.net/DTD/sodipodi-0.dtd"
   xmlns:inkscape="http://www.inkscape.org/namespaces/inkscape"
   id="svg8"
   version="1.1"
   viewBox="0 0 160.93135 113.48595"
   height="113.48595mm"
   width="160.93135mm"
   inkscape:version="0.92.2 (5c3e80d, 2017-08-06)"
   sodipodi:docname="logo.svg">
  <defs
     id="defs2">
    <inkscape:perspective
       sodipodi:type="inkscape:persp3d"
       inkscape:vp_x="267.09909 : 241.93661 : 1"
       inkscape:vp_y="-999.87232 : 15.980759 : 0"
       inkscape:vp_z="63.991352 : 224.9483 : 1"
       inkscape:persp3d-origin="124.28399 : 142.34211 : 1"
       id="perspective4623" />
  </defs>
  <sodipodi:namedview
     inkscape:window-maximized="1"
     inkscape:window-y="-8"
     inkscape:window-x="-8"
     inkscape:window-height="1017"
     inkscape:window-width="1920"
     showgrid="false"
     inkscape:current-layer="layer1"
     inkscape:document-units="mm"
     inkscape:cy="298.99946"
     inkscape:cx="511.5598"
     inkscape:zoom="0.70710678"
     inkscape:pageshadow="2"
     inkscape:pageopacity="0.0"
     borderopacity="1.0"
     bordercolor="#666666"
     pagecolor="#ffffff"
     id="base"
     inkscape:object-paths="false"
     inkscape:snap-bbox="true"
     inkscape:snap-to-guides="false"
     inkscape:snap-grids="false"
     inkscape:snap-others="false"
     inkscape:object-nodes="false"
     inkscape:snap-nodes="false"
     inkscape:snap-global="true" />
  <metadata
     id="metadata5">
    <rdf:RDF>
      <cc:Work
         rdf:about="">
        <dc:format>image/svg+xml</dc:format>
        <dc:type
           rdf:resource="http://purl.org/dc/dcmitype/StillImage" />
        <dc:title />
      </cc:Work>
    </rdf:RDF>
  </metadata>
  <g
     inkscape:label="Layer 1"
     inkscape:groupmode="layer"
     id="layer1"
     transform="translate(-25.096983,-16.515262)">
    <g
       id="g4777"
       transform="translate(-2.0203687,-13.684065)">
      <path
         transform="scale(0.26458333)"
         inkscape:connector-curvature="0"
         id="path4771"
         d="m 572.18833,542.86953 c -2.08326,-0.57268 -5.19138,-2.93591 -6.10396,-4.64109 -1.45582,-2.72021 -2.08943,-11.74385 -1.00659,-14.33543 1.09456,-2.61968 1.68293,-2.86893 8.29715,-3.51498 l 4.72213,-0.46123 0.48363,-4.51604 c 0.65449,-6.1115 -1.58033,-17.13135 -4.84719,-23.90149 -3.82546,-7.92776 -9.71663,-14.75035 -16.74036,-19.38711 -5.8134,-3.83775 -6.22237,-3.9884 -12.02842,-4.43078 -5.13986,-0.39163 -6.84871,-0.88266 -11.79819,-3.3902 -3.94978,-2.00107 -6.08303,-3.54152 -6.71751,-4.85084 -0.51135,-1.05523 -2.99802,-3.6291 -5.52593,-5.71971 -2.52791,-2.0906 -5.55079,-4.68321 -6.71751,-5.76136 -5.32473,-4.92045 -13.08148,-8.81147 -13.08148,-6.56206 0,0.9602 8.64756,13.7495 11.76986,17.40703 1.30476,1.52842 2.37228,3.44635 2.37228,4.26208 0,2.44037 -1.99146,4.53678 -5.10644,5.37556 -1.61333,0.43442 -4.78157,2.04497 -7.04052,3.579 -5.43445,3.69046 -15.25158,8.39932 -17.51412,8.40078 -1.18451,7.1e-4 -2.70336,0.95576 -4.41748,2.77754 -2.51276,2.6706 -4.20312,3.59667 -20.36867,11.15914 -7.16887,3.3537 -7.00149,3.31814 -12.38447,2.63059 -3.08831,-0.39446 -4.11308,-0.16452 -7.94496,1.7827 -7.80802,3.96775 -18.18137,3.6826 -23.0346,-0.63319 -1.82722,-1.62486 -2.00027,-2.15258 -1.70821,-5.20879 0.26436,-2.76629 0.77235,-3.79489 2.72285,-5.51335 4.43058,-3.90349 6.46747,-4.45227 16.89355,-4.55147 10.3568,-0.0985 11.64275,-0.37969 19.50423,-4.26412 5.92183,-2.92603 8.07068,-5.08029 12.43522,-12.46651 2.42133,-4.09768 3.04009,-5.81489 3.00743,-8.34634 -0.0577,-4.47049 -3.65453,-11.40626 -8.96877,-17.29438 -4.87297,-5.39919 -6.88756,-6.49246 -19.4243,-10.54118 l -7.94188,-2.56481 -13.62487,0.0252 c -17.31303,0.032 -25.45752,0.79007 -33.37725,3.10643 -3.47454,1.01623 -8.40661,2.1573 -10.96016,2.5357 -9.29786,1.37784 -34.75621,3.60927 -52.71616,4.62059 -10.11708,0.56966 -23.00856,1.6914 -28.64774,2.49271 -5.63918,0.80132 -13.11683,1.6055 -16.61701,1.78707 -9.72054,0.50425 -16.34903,1.69449 -17.99942,3.23206 -1.9939,1.85761 -1.8611,6.22321 0.35121,11.54513 0.97001,2.33345 2.23881,6.50451 2.81957,9.26903 0.9964,4.74313 0.97435,5.29043 -0.39134,9.71201 -0.79598,2.57709 -3.33013,8.27049 -5.63144,12.65198 -3.88884,7.40403 -4.18176,8.29075 -4.14967,12.56185 0.019,2.52753 0.64544,6.5215 1.39213,8.8755 1.79714,5.66568 0.80428,9.08147 -3.32569,11.44149 -2.60251,1.48718 -3.54803,1.57676 -16.19886,1.53476 -13.85791,-0.046 -24.65778,-0.66614 -25.4532,-1.46155 -0.2498,-0.24981 -0.0344,-1.14675 0.47869,-1.99322 0.84234,-1.38966 0.72056,-1.72232 -1.25477,-3.42761 -1.95803,-1.69037 -2.1229,-2.12979 -1.57077,-4.18669 0.47389,-1.76542 1.00187,-2.29809 2.27784,-2.29809 0.91353,0 2.05709,-0.4773 2.54124,-1.06066 0.48415,-0.58337 1.71635,-1.06554 2.73823,-1.07149 1.02188,-0.006 2.33526,-0.32415 2.91862,-0.70711 1.7088,-1.12175 -0.19797,-1.89414 -7.02454,-2.84549 -3.33131,-0.46425 -7.10253,-1.27284 -8.38048,-1.79687 -2.24103,-0.91893 -2.27869,-0.99931 -1.06066,-2.26317 0.69458,-0.72072 2.23647,-2.72385 3.42641,-4.4514 2.24225,-3.25528 9.30795,-7.72412 12.21264,-7.72412 0.79765,0 1.6211,-0.2764 1.82989,-0.61423 0.20879,-0.33782 1.63043,-0.81424 3.1592,-1.0587 3.2888,-0.5259 6.44419,-3.80165 6.44404,-6.68983 -4e-5,-1.03966 -0.79007,-4.43588 -1.75559,-7.54715 -0.96554,-3.11127 -2.24406,-8.99793 -2.84116,-13.08147 -1.22416,-8.37188 -3.2188,-15.59162 -5.17695,-18.73833 -1.07357,-1.72519 -2.62801,-2.57338 -8.32428,-4.54217 -9.47482,-3.27476 -16.91163,-6.69794 -18.84215,-8.67308 -0.8784,-0.89869 -3.46294,-2.89093 -5.74343,-4.42718 -2.28049,-1.53625 -4.86563,-3.93262 -5.74476,-5.32525 -0.87913,-1.39263 -4.37817,-5.54506 -7.77564,-9.22763 -10.92449,-11.84119 -17.1084,-21.22009 -22.13125,-33.56562 -4.83546,-11.88495 -6.11474,-15.3021 -8.02951,-21.44811 -4.7178,-15.14313 -3.30478,-29.85628 4.91848,-51.21392 3.27875,-8.51565 3.99137,-12.25726 4.00527,-21.02962 l 0.0129,-8.13173 -2.92665,-5.65685 c -3.23258,-6.24819 -5.49462,-8.83214 -6.68752,-7.63923 -0.51783,0.51782 -0.2786,3.91939 0.79202,11.26164 2.38146,16.33188 1.54428,20.59329 -4.50595,22.93612 -1.22553,0.47456 -4.45563,1.89648 -7.17799,3.15981 -9.45742,4.38878 -15.72227,4.92401 -19.65841,1.67951 -5.80523,-4.78516 -6.53483,-8.9579 -7.159,-40.94379 -0.19352,-9.91718 -0.55607,-18.88425 -0.80567,-19.92684 -0.71001,-2.96583 1.42735,-8.19719 6.42345,-15.72196 2.51466,-3.78739 6.04792,-9.74361 7.85169,-13.23606 1.85062,-3.58313 3.62448,-6.19748 4.07113,-6.00009 20.11198,8.88818 29.12062,10.92884 51.00893,11.55467 33.36929,0.95409 61.48476,-5.45826 80.49141,-18.35782 l 4.13671,-2.80753 3.53043,3.76038 c 3.6237,3.85972 5.71249,7.50534 10.42243,18.19043 1.48585,3.37085 4.94566,10.74269 7.68847,16.38187 2.74281,5.63917 5.85548,13.0791 6.91706,16.53316 1.85734,6.04324 1.89695,6.49664 1.05025,12.02081 -2.53966,16.56947 -6.69128,23.61902 -15.31138,25.99915 -2.87039,0.79255 -13.84333,0.20298 -15.80474,-0.84918 -0.61,-0.32723 -2.85917,-1.43134 -4.99817,-2.45361 -2.13899,-1.02226 -4.61498,-2.53607 -5.50219,-3.36402 -1.72328,-1.60815 -3.60892,-7.16168 -4.31727,-12.71508 -0.23847,-1.8696 -0.75178,-3.43561 -1.14069,-3.48003 -1.84822,-0.21112 -5.17956,9.11983 -4.3525,12.19117 0.74384,2.76226 10.04131,9.15063 13.31759,9.15063 0.70838,0 1.28796,0.26727 1.28796,0.59393 0,0.32666 1.35234,1.00358 3.0052,1.50426 1.65286,0.50069 4.75529,1.79217 6.89429,2.86996 2.139,1.07779 5.32098,2.44584 7.07107,3.04011 1.75009,0.59426 5.40937,1.92779 8.13173,2.96339 5.90727,2.24716 35.40552,8.45474 60.45763,12.72265 35.24592,6.00454 64.10274,10.9525 71.77134,12.30635 4.27799,0.75526 10.96015,1.73583 14.84924,2.17905 3.88909,0.44321 8.59817,1.10274 10.46463,1.46562 1.86645,0.36287 5.0438,0.65977 7.06078,0.65977 3.76504,0 14.09272,1.29818 25.96165,3.26336 3.69464,0.61173 8.14941,1.24418 9.8995,1.40543 1.75009,0.16126 5.72756,0.73945 8.83883,1.28486 3.11127,0.54541 7.40695,1.19963 9.54595,1.45381 2.13899,0.25419 5.32097,0.88666 7.07106,1.40549 1.75009,0.51882 5.25027,1.48798 7.77818,2.15369 2.5279,0.6657 5.23259,1.47432 6.01041,1.79694 0.77781,0.32263 7.29546,2.52368 14.48365,4.89124 16.98195,5.5933 31.58728,13.31545 41.36169,21.86881 5.75702,5.03784 18.03835,19.07782 20.86062,23.8478 3.01936,5.10309 9.27565,13.70933 10.99862,15.12984 2.7427,2.26125 9.25288,13.63043 12.12805,21.18005 0.95838,2.51651 2.8512,6.55799 4.20626,8.98107 1.35507,2.42308 4.66344,11.30833 7.35193,19.74499 5.01,15.72167 9.43323,25.16947 17.183,36.70205 4.21465,6.2719 11.44911,13.53862 17.33354,17.41085 7.31495,4.81355 26.2429,13.94478 37.9404,18.30321 5.44472,2.02869 10.69499,4.14603 11.66726,4.70521 1.65211,0.95018 1.51333,0.98939 -2.12132,0.5995 -5.53485,-0.59374 -11.50241,-1.70154 -18.03122,-3.34726 -3.11127,-0.78426 -6.77055,-1.68462 -8.13173,-2.00081 -19.79393,-4.59789 -35.5685,-11.96551 -46.76338,-21.84115 -4.77512,-4.21242 -12.10496,-13.67116 -15.45704,-19.94647 -1.17388,-2.19758 -4.3311,-10.7038 -7.01604,-18.90271 -5.04652,-15.41038 -8.35802,-22.41595 -14.57881,-30.8418 -1.72278,-2.33345 -4.42357,-6.83754 -6.00176,-10.00908 -1.86067,-3.73922 -4.66194,-7.73762 -7.96822,-11.37348 -2.80433,-3.08387 -7.42732,-8.20527 -10.2733,-11.3809 -2.84598,-3.17563 -5.49384,-5.77386 -5.88414,-5.77386 -3.03787,0 -4.40667,9.01622 -2.5227,16.61701 2.83905,11.45404 5.69068,21.31829 6.49468,22.46617 1.37034,1.95643 7.82935,6.57944 14.66923,10.49942 3.46925,1.98826 7.27955,4.83157 8.70786,6.49797 3.20146,3.73511 6.57636,10.73694 7.10495,14.74047 0.36705,2.78001 -0.52685,13.25534 -2.61537,30.64878 -1.17444,9.78079 -0.53438,15.03762 2.92722,24.04163 1.64468,4.278 2.99299,8.94091 2.99623,10.36203 0.007,3.0552 -2.06563,6.26958 -4.90024,7.59972 -1.10232,0.51726 -2.48151,1.22382 -3.06488,1.57013 -1.62764,0.96626 -2.13779,1.1057 -7.07107,1.93285 -5.70292,0.9562 -16.13598,1.55377 -18.03122,1.03277 z"
         style="fill:#000000;fill-opacity:1;fill-rule:evenodd;stroke-width:0.70710677" />
      <path
         transform="scale(0.26458333)"
         inkscape:connector-curvature="0"
         id="path4773"
         d="m 161.00574,207.7446 c -15.47752,-1.83799 -26.17332,-4.47765 -33.79145,-8.33952 -11.91894,-6.0421 -15.40301,-12.99007 -11.12344,-22.18253 3.50326,-7.52499 11.36363,-13.03012 25.96742,-18.18668 l 5.44771,-1.92357 1.49918,-6.81409 c 4.60223,-20.91808 7.10239,-28.41637 10.84114,-32.5139 3.25223,-3.5643 3.84885,-3.64512 26.90912,-3.64512 h 21.57727 l 2.61604,2.29692 c 4.22324,3.70805 7.0272,11.56757 9.77578,27.40156 1.6862,9.71384 2.27207,11.2388 4.50611,11.72882 16.50457,3.62019 27.41169,9.07034 32.18085,16.08035 1.68447,2.47594 1.95707,3.48691 1.69645,6.29135 -0.4827,5.19424 -3.12307,8.45311 -11.06471,13.65654 -12.475,8.17373 -20.68025,11.20986 -39.30776,14.54479 -6.96996,1.24785 -11.76848,1.55305 -26.87006,1.70906 -10.11163,0.10446 -19.49847,0.0577 -20.85965,-0.10398 z"
         style="fill:#000000;fill-opacity:1;fill-rule:evenodd;stroke-width:0.70710677" />
    </g>
  </g>
</svg>
